<svg xmlns="http://www.w3.org/2000/svg" xmlns:xlink="http://www.w3.org/1999/xlink" version="1.1" width="256" height="256" viewBox="0 0 256 256" xml:space="preserve">
<desc>Created with Fabric.js 1.7.22</desc>
<defs>
</defs>
<g transform="translate(128 128) scale(0.72 0.72)" style="">
	<g style="stroke: none; stroke-width: 0; stroke-dasharray: none; stroke-linecap: butt; stroke-linejoin: miter; stroke-miterlimit: 10; fill: none; fill-rule: nonzero; opacity: 1;" transform="translate(-175.05 -175.05000000000004) scale(3.89 3.89)" >
	<path d="M 63.063 0 H 26.937 c -2.816 0 -5.098 2.283 -5.098 5.098 v 79.803 c 0 2.816 2.283 5.098 5.098 5.098 h 36.126 c 2.816 0 5.098 -2.283 5.098 -5.098 V 5.098 C 68.161 2.283 65.879 0 63.063 0 z M 38.596 4.419 h 12.809 c 0.276 0 0.5 0.224 0.5 0.5 s -0.224 0.5 -0.5 0.5 H 38.596 c -0.276 0 -0.5 -0.224 -0.5 -0.5 S 38.319 4.419 38.596 4.419 z M 45 87.304 c -1.265 0 -2.291 -1.026 -2.291 -2.291 c 0 -1.265 1.026 -2.291 2.291 -2.291 s 2.291 1.026 2.291 2.291 C 47.291 86.278 46.265 87.304 45 87.304 z M 65.161 80 H 24.839 V 9.374 h 40.323 V 80 z" style="stroke: none; stroke-width: 1; stroke-dasharray: none; stroke-linecap: butt; stroke-linejoin: miter; stroke-miterlimit: 10; fill: rgb(82,87,93); fill-rule: nonzero; opacity: 1;" transform=" matrix(1 0 0 1 0 0) " stroke-linecap="round" />
</g>
</g>
</svg>