<?xml version="1.0" encoding="UTF-8"?>
<svg xmlns="http://www.w3.org/2000/svg" xmlns:xlink="http://www.w3.org/1999/xlink" viewBox="0 0 80 80" width="80px" height="80px">
<g id="surface22384335">
<path style=" stroke:none;fill-rule:nonzero;fill:rgb(20.392157%,59.607846%,85.882354%);fill-opacity:1;" d="M 46.5 40 C 46.5 43.59375 43.59375 46.5 40 46.5 C 36.40625 46.5 33.5 43.59375 33.5 40 C 33.5 36.40625 36.40625 33.5 40 33.5 C 43.59375 33.5 46.5 36.40625 46.5 40 Z M 46.5 40 "/>
<path style=" stroke:none;fill-rule:nonzero;fill:rgb(30.588236%,47.843137%,70.980394%);fill-opacity:1;" d="M 40 47 C 36.140625 47 33 43.859375 33 40 C 33 36.140625 36.140625 33 40 33 C 43.859375 33 47 36.140625 47 40 C 47 43.859375 43.859375 47 40 47 Z M 40 34 C 36.691406 34 34 36.691406 34 40 C 34 43.308594 36.691406 46 40 46 C 43.308594 46 46 43.308594 46 40 C 46 36.691406 43.308594 34 40 34 Z M 40 34 "/>
<path style=" stroke:none;fill-rule:nonzero;fill:rgb(20.392157%,59.607846%,85.882354%);fill-opacity:1;" d="M 24.472656 75.503906 C 22.761719 75.503906 21.203125 75.109375 19.84375 74.339844 C 17.5625 73.046875 15.984375 70.816406 15.15625 67.71875 C 14.191406 64.113281 14.304688 59.320312 15.488281 53.839844 C 5.957031 50.5625 0.5 45.53125 0.5 40 C 0.5 34.46875 5.953125 29.4375 15.488281 26.160156 C 14.304688 20.679688 14.1875 15.886719 15.152344 12.28125 C 15.984375 9.179688 17.558594 6.953125 19.839844 5.660156 C 21.199219 4.890625 22.761719 4.496094 24.472656 4.496094 C 28.859375 4.496094 34.363281 7.226562 40.003906 12.195312 C 45.640625 7.230469 51.144531 4.503906 55.527344 4.503906 C 57.238281 4.503906 58.796875 4.894531 60.15625 5.667969 C 62.433594 6.960938 64.011719 9.183594 64.84375 12.277344 C 65.808594 15.886719 65.691406 20.675781 64.507812 26.160156 C 74.042969 29.4375 79.5 34.46875 79.5 40 C 79.5 45.53125 74.042969 50.5625 64.507812 53.84375 C 65.691406 59.324219 65.808594 64.113281 64.839844 67.71875 C 64.011719 70.816406 62.4375 73.039062 60.160156 74.332031 C 58.796875 75.105469 57.238281 75.496094 55.527344 75.496094 C 51.140625 75.496094 45.640625 72.769531 40 67.808594 C 34.359375 72.773438 28.859375 75.503906 24.472656 75.503906 Z M 19.335938 55.007812 C 18.347656 59.722656 18.234375 63.753906 19.019531 66.683594 C 19.5625 68.710938 20.503906 70.117188 21.816406 70.859375 C 22.566406 71.285156 23.464844 71.503906 24.472656 71.503906 C 27.867188 71.503906 32.335938 69.222656 37.09375 65.066406 C 34.710938 62.664062 32.382812 59.945312 30.167969 56.976562 C 26.335938 56.558594 22.695312 55.898438 19.335938 55.007812 Z M 42.90625 65.066406 C 47.664062 69.214844 52.132812 71.496094 55.527344 71.496094 C 56.539062 71.496094 57.433594 71.28125 58.1875 70.851562 C 59.496094 70.109375 60.433594 68.710938 60.976562 66.6875 C 61.761719 63.753906 61.652344 59.722656 60.660156 55.007812 C 57.296875 55.898438 53.65625 56.5625 49.828125 56.976562 C 47.613281 59.945312 45.289062 62.664062 42.90625 65.066406 Z M 35.566406 57.394531 C 37.019531 59.167969 38.503906 60.824219 40 62.332031 C 41.492188 60.828125 42.980469 59.171875 44.429688 57.394531 C 42.9375 57.464844 41.453125 57.5 40 57.5 C 38.546875 57.5 37.058594 57.464844 35.566406 57.394531 Z M 32.347656 53.179688 C 34.84375 53.390625 37.417969 53.5 40 53.5 C 42.585938 53.5 45.15625 53.390625 47.644531 53.179688 C 49.132812 51.097656 50.550781 48.910156 51.859375 46.683594 C 53.128906 44.53125 54.320312 42.28125 55.40625 40 C 54.324219 37.722656 53.132812 35.476562 51.859375 33.316406 C 50.554688 31.09375 49.136719 28.910156 47.644531 26.820312 C 45.15625 26.609375 42.585938 26.5 40 26.5 C 37.410156 26.5 34.839844 26.609375 32.351562 26.820312 C 30.863281 28.90625 29.445312 31.089844 28.132812 33.316406 C 26.863281 35.476562 25.671875 37.722656 24.589844 40.003906 C 25.671875 42.277344 26.863281 44.523438 28.132812 46.6875 C 29.4375 48.902344 30.855469 51.085938 32.347656 53.179688 Z M 57.492188 44.777344 C 56.785156 46.125 56.054688 47.445312 55.304688 48.714844 C 54.554688 49.996094 53.753906 51.28125 52.921875 52.550781 C 55.292969 52.183594 57.566406 51.714844 59.691406 51.148438 C 59.101562 49.101562 58.363281 46.964844 57.492188 44.777344 Z M 20.304688 51.148438 C 22.429688 51.710938 24.699219 52.183594 27.070312 52.546875 C 26.234375 51.273438 25.433594 49.984375 24.6875 48.714844 C 23.941406 47.445312 23.207031 46.128906 22.503906 44.78125 C 21.636719 46.957031 20.898438 49.089844 20.304688 51.148438 Z M 59.816406 40 C 61.34375 43.390625 62.589844 46.742188 63.523438 49.976562 C 70.925781 47.371094 75.5 43.574219 75.5 40 C 75.5 36.425781 70.925781 32.628906 63.523438 30.023438 C 62.589844 33.257812 61.34375 36.609375 59.816406 40 Z M 16.472656 30.023438 C 9.074219 32.628906 4.5 36.425781 4.5 40 C 4.5 43.574219 9.074219 47.371094 16.472656 49.976562 C 17.40625 46.742188 18.652344 43.390625 20.179688 40.003906 C 18.652344 36.613281 17.40625 33.261719 16.472656 30.023438 Z M 20.304688 28.851562 C 20.898438 30.90625 21.636719 33.042969 22.503906 35.21875 C 23.207031 33.878906 23.9375 32.558594 24.6875 31.289062 C 25.4375 30.007812 26.238281 28.722656 27.074219 27.453125 C 24.699219 27.816406 22.429688 28.285156 20.304688 28.851562 Z M 52.921875 27.449219 C 53.757812 28.726562 54.558594 30.015625 55.308594 31.289062 C 56.054688 32.554688 56.785156 33.875 57.492188 35.21875 C 58.363281 33.042969 59.101562 30.90625 59.695312 28.851562 C 57.5625 28.285156 55.292969 27.816406 52.921875 27.449219 Z M 24.472656 8.496094 C 23.460938 8.496094 22.566406 8.714844 21.8125 9.140625 C 20.503906 9.886719 19.5625 11.289062 19.019531 13.316406 C 18.234375 16.25 18.34375 20.28125 19.335938 24.996094 C 22.695312 24.101562 26.339844 23.441406 30.171875 23.023438 C 32.386719 20.054688 34.714844 17.335938 37.097656 14.9375 C 32.335938 10.777344 27.867188 8.496094 24.472656 8.496094 Z M 49.828125 23.023438 C 53.65625 23.4375 57.300781 24.101562 60.660156 24.992188 C 61.652344 20.277344 61.765625 16.246094 60.976562 13.3125 C 60.433594 11.289062 59.496094 9.890625 58.1875 9.148438 C 57.433594 8.71875 56.539062 8.503906 55.527344 8.503906 C 52.132812 8.503906 47.664062 10.785156 42.90625 14.9375 C 45.285156 17.335938 47.613281 20.054688 49.828125 23.023438 Z M 40 22.5 C 41.453125 22.5 42.9375 22.535156 44.429688 22.605469 C 42.980469 20.832031 41.496094 19.175781 40.003906 17.667969 C 38.503906 19.179688 37.019531 20.835938 35.570312 22.605469 C 37.0625 22.535156 38.546875 22.5 40 22.5 Z M 40 22.5 "/>
<path style=" stroke:none;fill-rule:nonzero;fill:rgb(30.588236%,47.843137%,70.980394%);fill-opacity:1;" d="M 24.472656 4.996094 C 28.964844 4.996094 34.46875 7.90625 40.003906 12.863281 C 45.539062 7.910156 51.035156 5.003906 55.527344 5.003906 C 57.148438 5.003906 58.625 5.375 59.914062 6.101562 C 62.070312 7.324219 63.566406 9.445312 64.359375 12.410156 C 65.4375 16.324219 65.210938 21.148438 63.925781 26.488281 C 73.148438 29.570312 79 34.429688 79 40 C 79 45.570312 73.148438 50.429688 63.925781 53.511719 C 65.265625 59.285156 65.488281 64.238281 64.359375 67.589844 C 63.5625 70.554688 62.070312 72.675781 59.914062 73.898438 C 58.625 74.628906 57.453125 75 55.832031 75 C 55.832031 75 55.417969 75 55.414062 75 C 50.925781 75 45.535156 72.089844 40 67.140625 C 34.464844 72.09375 28.964844 75.003906 24.472656 75.003906 C 22.851562 75.003906 21.375 74.632812 20.085938 73.902344 C 17.929688 72.679688 16.433594 70.554688 15.640625 67.589844 C 14.449219 63.871094 14.6875 58.988281 16.074219 53.511719 C 6.851562 50.429688 1 45.570312 1 40 C 1 34.433594 6.851562 29.570312 16.070312 26.488281 C 15.386719 23.429688 14.945312 20.589844 14.929688 18 C 14.917969 15.953125 15.199219 14.050781 15.636719 12.410156 C 16.433594 9.445312 17.929688 7.320312 20.085938 6.097656 C 21.371094 5.367188 22.847656 4.996094 24.472656 4.996094 M 18.957031 25.613281 C 22.433594 24.660156 26.296875 23.9375 30.441406 23.496094 C 32.824219 20.285156 35.316406 17.402344 37.828125 14.914062 C 32.953125 10.566406 28.210938 7.996094 24.472656 7.996094 C 23.371094 7.996094 22.394531 8.234375 21.566406 8.703125 C 20.132812 9.519531 19.113281 11.023438 18.535156 13.1875 C 17.679688 16.386719 17.871094 20.714844 18.957031 25.613281 M 61.039062 25.613281 C 62.125 20.714844 62.320312 16.386719 61.460938 13.183594 C 60.882812 11.027344 59.863281 9.523438 58.433594 8.710938 C 57.605469 8.242188 56.625 8.003906 55.527344 8.003906 C 51.789062 8.003906 47.050781 10.570312 42.179688 14.914062 C 44.6875 17.402344 47.179688 20.285156 49.558594 23.496094 C 53.699219 23.9375 57.5625 24.65625 61.039062 25.613281 M 34.476562 23.164062 C 36.277344 23.058594 38.085938 22.964844 39.964844 22.964844 C 41.84375 22.964844 43.71875 23.058594 45.523438 23.164062 C 43.714844 20.886719 41.859375 18.804688 40 16.960938 C 38.144531 18.804688 36.285156 20.886719 34.476562 23.164062 M 40 54 C 42.761719 54 45.402344 53.878906 47.917969 53.65625 C 49.4375 51.539062 50.90625 49.292969 52.289062 46.9375 C 53.644531 44.640625 54.867188 42.3125 55.960938 40 C 54.867188 37.6875 53.644531 35.359375 52.289062 33.0625 C 50.90625 30.707031 49.4375 28.460938 47.917969 26.34375 C 45.40625 26.121094 42.761719 26 40 26 C 37.238281 26 34.59375 26.121094 32.078125 26.34375 C 30.558594 28.460938 29.089844 30.707031 27.703125 33.0625 C 26.351562 35.359375 25.128906 37.6875 24.035156 40 C 25.128906 42.3125 26.351562 44.640625 27.703125 46.9375 C 29.089844 49.292969 30.558594 51.539062 32.078125 53.65625 C 34.59375 53.878906 37.238281 54 40 54 M 57.546875 36.414062 C 58.671875 33.703125 59.601562 31.042969 60.3125 28.5 C 57.757812 27.796875 54.9375 27.21875 51.882812 26.792969 C 52.910156 28.320312 53.914062 29.902344 54.875 31.539062 C 55.828125 33.160156 56.71875 34.789062 57.546875 36.414062 M 22.449219 36.414062 C 23.277344 34.789062 24.164062 33.160156 25.117188 31.539062 C 26.082031 29.902344 27.082031 28.320312 28.113281 26.792969 C 25.058594 27.21875 22.238281 27.800781 19.683594 28.5 C 20.394531 31.046875 21.324219 33.703125 22.449219 36.414062 M 63.1875 50.621094 C 71.265625 47.886719 76 43.867188 76 40 C 76 36.132812 71.265625 32.113281 63.1875 29.378906 C 62.234375 32.78125 60.917969 36.359375 59.269531 40 C 60.917969 43.636719 62.234375 47.214844 63.1875 50.621094 M 16.808594 50.621094 C 17.761719 47.21875 19.078125 43.640625 20.726562 40.003906 C 19.078125 36.363281 17.761719 32.785156 16.808594 29.378906 C 8.734375 32.117188 4 36.136719 4 40 C 4 43.867188 8.734375 47.886719 16.808594 50.621094 M 51.882812 53.207031 C 54.9375 52.78125 57.757812 52.203125 60.3125 51.5 C 59.601562 48.957031 58.671875 46.296875 57.546875 43.585938 C 56.71875 45.210938 55.828125 46.839844 54.875 48.460938 C 53.914062 50.097656 52.910156 51.679688 51.882812 53.207031 M 28.109375 53.207031 C 27.082031 51.679688 26.078125 50.097656 25.117188 48.460938 C 24.164062 46.839844 23.277344 45.214844 22.449219 43.589844 C 21.324219 46.296875 20.394531 48.957031 19.683594 51.5 C 22.238281 52.199219 25.054688 52.78125 28.109375 53.207031 M 24.472656 72.003906 C 28.214844 72.003906 32.953125 69.433594 37.824219 65.089844 C 35.3125 62.601562 32.820312 59.714844 30.4375 56.503906 C 26.296875 56.0625 22.4375 55.339844 18.960938 54.386719 C 17.875 59.285156 17.679688 63.613281 18.539062 66.8125 C 19.117188 68.972656 20.136719 70.480469 21.566406 71.292969 C 22.394531 71.765625 23.375 72.003906 24.472656 72.003906 M 55.527344 71.996094 C 56.625 71.996094 57.601562 71.757812 58.433594 71.289062 C 59.863281 70.476562 60.882812 68.972656 61.457031 66.816406 C 62.316406 63.613281 62.121094 59.285156 61.035156 54.386719 C 57.558594 55.34375 53.699219 56.0625 49.554688 56.503906 C 47.175781 59.714844 44.683594 62.597656 42.175781 65.089844 C 47.046875 69.429688 51.789062 71.996094 55.527344 71.996094 M 40 63.039062 C 41.855469 61.195312 43.714844 59.113281 45.523438 56.835938 C 43.722656 56.941406 41.964844 57.167969 40.082031 57.167969 C 38.203125 57.167969 36.277344 56.941406 34.472656 56.835938 C 36.285156 59.113281 38.140625 61.195312 40 63.039062 M 24.117188 4.070312 C 22.316406 4.070312 21.03125 4.410156 19.59375 5.226562 C 17.195312 6.585938 15.539062 8.914062 14.671875 12.152344 C 13.710938 15.738281 13.796875 20.453125 14.90625 25.832031 C 5.417969 29.1875 0 34.324219 0 40 C 0 45.675781 5.421875 50.8125 14.910156 54.167969 C 13.796875 59.546875 13.714844 64.261719 14.675781 67.847656 C 15.539062 71.082031 17.195312 73.410156 19.59375 74.773438 C 21.035156 75.589844 22.765625 75.9375 24.5625 75.9375 C 29.050781 75.9375 34.316406 73.402344 40 68.472656 C 45.683594 73.398438 51.039062 75.996094 55.527344 75.996094 C 57.324219 75.996094 58.96875 75.585938 60.40625 74.769531 C 62.804688 73.410156 64.457031 71.082031 65.324219 67.851562 C 66.285156 64.261719 66.199219 59.546875 65.089844 54.171875 C 74.578125 50.8125 80 45.675781 80 40 C 80 34.324219 74.578125 29.1875 65.089844 25.832031 C 66.203125 20.449219 66.285156 15.734375 65.324219 12.148438 C 64.457031 8.917969 62.804688 6.589844 60.40625 5.230469 C 58.964844 4.417969 57.324219 4.003906 55.527344 4.003906 C 51.039062 4.003906 45.6875 6.601562 40.003906 11.53125 C 34.316406 6.597656 28.9375 4.070312 24.449219 4.070312 Z M 19.71875 24.378906 C 19.257812 22.054688 18.949219 19.875 18.929688 17.964844 C 18.914062 16.246094 19.152344 14.746094 19.5 13.445312 C 20.007812 11.550781 20.867188 10.25 22.058594 9.574219 C 22.734375 9.191406 23.558594 8.929688 24.484375 8.929688 C 27.664062 8.929688 31.851562 11.109375 36.367188 14.964844 C 34.144531 17.238281 31.972656 19.78125 29.898438 22.550781 C 26.316406 22.949219 22.898438 23.5625 19.71875 24.378906 Z M 43.636719 14.964844 C 48.152344 11.113281 52.347656 9.003906 55.527344 9.003906 C 56.449219 9.003906 57.261719 9.199219 57.941406 9.582031 C 59.128906 10.257812 59.988281 11.554688 60.496094 13.441406 C 61.367188 16.261719 61.257812 20.007812 60.277344 24.375 C 57.101562 23.5625 53.683594 22.949219 50.097656 22.550781 C 48.027344 19.785156 45.855469 17.238281 43.636719 14.964844 Z M 36.671875 22.058594 C 37.769531 20.761719 38.882812 19.53125 40 18.382812 C 41.121094 19.53125 42.230469 20.761719 43.328125 22.058594 C 42.207031 22.019531 41.09375 22 40 22 C 38.90625 22 37.792969 22.019531 36.671875 22.058594 Z M 32.625 27.300781 C 35.03125 27.101562 37.507812 26.960938 40 26.960938 C 42.492188 26.960938 44.96875 27.101562 47.371094 27.300781 C 48.804688 29.320312 50.167969 31.425781 51.429688 33.570312 C 52.652344 35.648438 53.800781 37.808594 54.851562 40 C 53.800781 42.191406 52.648438 44.351562 51.429688 46.429688 C 50.167969 48.574219 48.804688 50.679688 47.371094 52.699219 C 44.96875 52.898438 42.492188 53.164062 40 53.164062 C 37.507812 53.164062 35.027344 52.898438 32.621094 52.699219 C 31.1875 50.679688 29.824219 48.574219 28.5625 46.429688 C 27.34375 44.351562 26.191406 42.191406 25.140625 40 C 26.191406 37.808594 27.34375 35.644531 28.566406 33.566406 C 29.828125 31.425781 31.191406 29.316406 32.625 27.300781 Z M 57.421875 34.023438 C 56.871094 33.007812 56.308594 32.007812 55.738281 31.035156 C 55.167969 30.066406 54.570312 29.09375 53.953125 28.125 C 55.726562 28.425781 57.4375 28.789062 59.066406 29.203125 C 58.601562 30.769531 58.050781 32.382812 57.421875 34.023438 Z M 20.929688 29.203125 C 22.558594 28.789062 24.269531 28.425781 26.042969 28.125 C 25.421875 29.09375 24.824219 30.066406 24.257812 31.03125 C 23.683594 32.003906 23.121094 33.003906 22.574219 34.023438 C 21.945312 32.382812 21.394531 30.773438 20.929688 29.203125 Z M 60.363281 40 C 61.78125 36.835938 62.953125 33.707031 63.855469 30.671875 C 70.757812 33.191406 75 36.722656 75 40 C 75 43.277344 70.757812 46.808594 63.855469 49.328125 C 62.949219 46.292969 61.78125 43.160156 60.363281 40 Z M 16.140625 49.324219 C 9.242188 46.808594 5 43.277344 5 40 C 5 36.722656 9.242188 33.191406 16.140625 30.675781 C 17.042969 33.710938 18.214844 36.839844 19.628906 40 C 18.214844 43.160156 17.046875 46.292969 16.140625 49.324219 Z M 53.953125 51.875 C 54.570312 50.90625 55.167969 49.933594 55.738281 48.96875 C 56.308594 47.996094 56.871094 46.992188 57.421875 45.976562 C 58.050781 47.617188 58.601562 49.230469 59.066406 50.796875 C 57.4375 51.210938 55.726562 51.574219 53.953125 51.875 Z M 20.929688 50.796875 C 21.394531 49.230469 21.945312 47.617188 22.574219 45.980469 C 23.121094 46.996094 23.683594 47.996094 24.253906 48.96875 C 24.824219 49.933594 25.421875 50.90625 26.039062 51.875 C 24.265625 51.570312 22.558594 51.210938 20.929688 50.796875 Z M 24.472656 71.003906 C 23.550781 71.003906 22.738281 70.808594 22.0625 70.425781 C 20.871094 69.746094 20.011719 68.445312 19.503906 66.554688 C 18.671875 63.710938 18.765625 59.964844 19.722656 55.621094 C 22.898438 56.4375 26.3125 57.050781 29.898438 57.449219 C 31.972656 60.214844 34.144531 62.761719 36.363281 65.035156 C 31.851562 68.894531 27.652344 71.003906 24.472656 71.003906 Z M 50.097656 57.449219 C 53.683594 57.050781 57.097656 56.4375 60.277344 55.625 C 61.382812 60.363281 61.46875 64.140625 60.492188 66.554688 C 59.988281 68.445312 59.128906 69.742188 57.941406 70.417969 C 57.261719 70.800781 56.449219 70.996094 55.527344 70.996094 L 55.527344 71.996094 L 55.527344 70.996094 C 52.347656 70.996094 48.148438 68.886719 43.636719 65.035156 C 45.855469 62.761719 48.023438 60.214844 50.097656 57.449219 Z M 40 61.621094 C 38.878906 60.472656 37.765625 59.242188 36.671875 57.941406 C 37.789062 57.980469 38.902344 58 40 58 C 41.09375 58 42.207031 57.980469 43.328125 57.941406 C 42.230469 59.242188 41.117188 60.472656 40 61.621094 Z M 40 61.621094 "/>
</g>
</svg>
